<?xml version="1.0" encoding="utf-8"?>
<!-- Generator: Adobe Illustrator 26.0.3, SVG Export Plug-In . SVG Version: 6.00 Build 0)  -->
<svg version="1.1" id="Слой_1" xmlns="http://www.w3.org/2000/svg" xmlns:xlink="http://www.w3.org/1999/xlink" x="0px" y="0px"
	 viewBox="0 0 240.94 153.07" style="enable-background:new 0 0 240.94 153.07;" xml:space="preserve">
<style type="text/css">
	.st0{fill:none;stroke:#EF7900;stroke-width:8;stroke-miterlimit:10;}
	.st1{fill:#EF7900;}
	.st2{fill:#46A6B1;}
</style>
<g>
	<circle class="st0" cx="120.47" cy="76.54" r="70.58"/>
	<path class="st1" d="M79.26,29.51c0,0,32.41,30.96,41.21,44.98c0,0,9.06,17.46,8.53,24.87c-0.02,2.11-0.27,4.76-1.06,7.71
		c-1.45,5.38-4.05,9.25-5.89,11.54c-0.67,1.08-1.27,1.92-1.72,2.51c-0.97,1.28-1.73,2.09-1.72,3.31c0,0.25,0.04,0.46,0.07,0.6
		c2.99-1.33,6.18-3.04,9.59-5.03c5.23-3.04,11.31-7.14,14.75-11.38c0,0,19.05-20.11,22.49-27.78c1.55-2.89,3.13-6.3,4.5-10.22
		c2.22-6.35,3.24-12.12,3.7-16.77c-0.92,2.68-2.5,6.32-5.25,10.13c-2.48,3.44-5.11,5.92-7.19,7.6c-0.6,0.68-4.28,4.75-10.25,4.82
		c-4.24,0.05-7.25-1.95-8.27-2.7c-4.5-2.78-9.51-6.35-14.62-10.91c-2.89-2.58-5.44-5.15-7.67-7.61c-2.31-2.4-12.99-13.4-22.69-19.05
		C94.64,34.29,91.66,33.03,79.26,29.51z"/>
	<circle class="st1" cx="147.26" cy="52.79" r="9"/>
	<path class="st2" d="M85.09,48.03c0,0,7.41,27.25,5.56,49.74c0,0-0.79,3.97,3.44,3.97c0,0,13.76,3.7,18.79,10.58
		c0,0-7.41-12.17-16.93-16.67C95.93,95.65,95.93,59.14,85.09,48.03z"/>
	<path class="st2" d="M83.5,75.28v25.93c0,0-1.59,4.76,1.59,6.09s16.67,6.61,20.64,11.38c0,0-9.26-12.44-17.73-15.61
		C88,103.06,85.88,77.92,83.5,75.28z"/>
	<path class="st2" d="M76.35,93.8v16.14c0,0,0,2.38,2.91,3.97c2.91,1.59,10.58,3.97,19.71,11.11c-0.66-0.88-1.56-2.01-2.69-3.26
		c-0.44-0.48-1.7-1.86-3.97-3.88c-3.09-2.75-5.49-4.87-9.13-6.7c-1.14-0.58-2.12-0.98-2.78-1.23c-0.21-0.21-0.52-0.57-0.79-1.06
		c-0.72-1.3-0.58-2.48-0.62-4.32c-0.01-0.33-0.04-1.81-0.26-3.44c-0.4-2.93-1.17-4.82-1.41-5.38C76.97,94.91,76.61,94.25,76.35,93.8
		z"/>
</g>
</svg>
